# Blender 5.1.1
# www.blender.org
mtllib capture_pillar.mtl
o Cube
v 0.459572 3.264242 -0.459572
v 0.459572 3.264242 0.459572
v -0.459572 3.264242 -0.459572
v -0.459572 3.264242 0.459572
v 0.686127 3.068012 0.877084
v 0.877084 3.068012 0.686127
v -0.686127 3.068012 0.877084
v -0.877084 3.068012 0.686127
v 0.877084 3.068012 -0.686127
v 0.686127 3.068012 -0.877084
v -0.877084 3.068012 -0.686127
v -0.686127 3.068012 -0.877084
v 0.477838 0.668149 -0.589779
v 0.477976 1.329175 -0.589948
v 0.589948 1.329175 -0.477976
v 0.589779 0.668149 -0.477838
v 0.891970 -1.000000 -0.891970
v 0.651374 -0.719175 -0.763314
v 0.763314 -0.719175 -0.651374
v 0.589779 0.668149 0.477838
v 0.589948 1.329175 0.477976
v 0.477976 1.329175 0.589948
v 0.477838 0.668149 0.589779
v 0.763314 -0.719175 0.651374
v 0.651374 -0.719175 0.763314
v 0.891970 -1.000000 0.891970
v -0.477838 0.668149 -0.589779
v -0.589779 0.668149 -0.477838
v -0.589948 1.329175 -0.477976
v -0.477976 1.329175 -0.589948
v -0.763314 -0.719175 -0.651374
v -0.651374 -0.719175 -0.763314
v -0.891970 -1.000000 -0.891970
v -0.589779 0.668149 0.477838
v -0.477838 0.668149 0.589779
v -0.477976 1.329175 0.589948
v -0.589948 1.329175 0.477976
v -0.891970 -1.000000 0.891970
v -0.651374 -0.719175 0.763314
v -0.763314 -0.719175 0.651374
v 0.632985 2.563268 0.744958
v 0.744958 2.563268 0.632985
v 0.919986 2.913138 0.919987
v -0.632985 2.563268 0.744958
v -0.919987 2.913138 0.919986
v -0.744958 2.563268 0.632985
v 0.744958 2.563268 -0.632985
v 0.632985 2.563268 -0.744958
v 0.919987 2.913138 -0.919986
v -0.744958 2.563268 -0.632985
v -0.919986 2.913138 -0.919987
v -0.632985 2.563268 -0.744958
v -0.654597 1.105809 -0.763463
v 0.654597 1.105809 -0.763463
v 0.859458 2.736783 -0.968324
v -0.859458 2.736783 -0.968324
v -0.877732 -0.892805 -0.986591
v 0.877732 -0.892805 -0.986591
v 0.654549 0.891426 -0.763409
v -0.654549 0.891426 -0.763409
v -0.986591 -0.892805 0.877732
v -0.986591 -0.892805 -0.877732
v -0.763409 0.891426 0.654549
v -0.763409 0.891426 -0.654549
v -0.763463 1.105809 0.654597
v -0.763463 1.105809 -0.654597
v -0.968324 2.736783 -0.859458
v -0.968324 2.736783 0.859458
v 0.654597 1.105809 0.763463
v -0.654597 1.105809 0.763463
v -0.859458 2.736783 0.968324
v 0.859458 2.736783 0.968324
v -0.877732 -0.892805 0.986591
v -0.654549 0.891426 0.763409
v 0.654549 0.891426 0.763409
v 0.877732 -0.892805 0.986591
v 0.763463 1.105809 -0.654597
v 0.763463 1.105809 0.654597
v 0.968324 2.736783 0.859458
v 0.968324 2.736783 -0.859458
v 0.763409 0.891426 -0.654549
v 0.986591 -0.892805 -0.877732
v 0.986591 -0.892805 0.877732
v 0.763409 0.891426 0.654549
v 0.640785 3.693571 0.640785
v 0.867341 3.497341 1.058297
v 1.058297 3.497341 0.867341
v 1.101200 3.342467 1.101200
v 0.640785 3.693571 -0.640785
v 1.058297 3.497341 -0.867341
v 0.867341 3.497341 -1.058297
v 1.101200 3.342467 -1.101200
v -0.640785 3.693571 -0.640785
v -1.058297 3.497341 -0.867341
v -0.867341 3.497341 -1.058297
v -1.101200 3.342467 -1.101200
v -0.640785 3.693571 0.640785
v -0.867341 3.497341 1.058297
v -1.058297 3.497341 0.867341
v -1.101200 3.342467 1.101200
vn -0.3298 -0.2455 0.9116
vn 0.8427 0.1357 0.5211
vn 0.9115 -0.2455 0.3298
vn 0.8427 0.1357 -0.5211
vn 0.4254 0.9050 -0.0000
vn -0.0000 1.0000 -0.0000
vn -0.0000 0.9050 -0.4254
vn -0.0000 0.9050 0.4254
vn -0.4254 0.9050 -0.0000
vn 0.7071 -0.0003 -0.7071
vn 0.6247 -0.4685 -0.6247
vn 0.7071 -0.0003 0.7071
vn 0.6247 -0.4685 0.6247
vn -0.7071 -0.0003 -0.7071
vn -0.6247 -0.4685 -0.6247
vn -0.7071 -0.0003 0.7071
vn -0.6247 -0.4685 0.6247
vn 0.7063 -0.0488 0.7063
vn -0.7063 -0.0488 0.7063
vn 0.7063 -0.0488 -0.7063
vn -0.7063 -0.0488 -0.7063
vn -0.7497 -0.6618 -0.0000
vn -0.0000 -0.6618 -0.7497
vn 0.6963 0.1742 -0.6963
vn -0.6963 0.1742 0.6963
vn 0.6963 0.1742 0.6963
vn -0.6963 0.1742 -0.6963
vn -0.0000 -0.0003 1.0000
vn 1.0000 -0.0003 -0.0000
vn -0.0000 -0.6618 0.7497
vn -1.0000 -0.0003 -0.0000
vn -0.0000 -0.0003 -1.0000
vn 0.7497 -0.6618 -0.0000
vn -0.0000 0.2643 0.9644
vn 0.9644 0.2643 -0.0000
vn -0.9644 0.2643 -0.0000
vn -0.0000 0.2643 -0.9644
vn -0.6962 -0.1749 0.6962
vn 0.6962 -0.1749 0.6962
vn 0.6962 -0.1749 -0.6962
vn -0.6962 -0.1749 -0.6962
vn -0.0000 0.1241 -0.9923
vn 0.9923 0.1241 -0.0000
vn -0.0000 -0.1246 -0.9922
vn 0.9922 -0.1246 -0.0000
vn -0.0000 -1.0000 -0.0000
vn -0.0000 0.1241 0.9923
vn -0.0000 -0.1246 0.9922
vn -0.9923 0.1241 -0.0000
vn -0.9922 -0.1246 -0.0000
vn -0.0000 0.2670 0.9637
vn 0.9115 -0.2455 -0.3298
vn 0.9637 0.2670 -0.0000
vn 0.3298 -0.2455 0.9115
vn -0.9637 0.2670 -0.0000
vn 0.5211 0.1357 0.8427
vn -0.0000 0.2670 -0.9637
vn -0.9115 -0.2455 0.3298
vn -0.0000 0.6135 -0.7897
vn -0.0000 -0.7897 -0.6135
vn -0.7017 -0.0014 -0.7125
vn 0.7017 -0.0014 -0.7125
vn -0.0000 0.7894 -0.6139
vn -0.7017 0.0013 -0.7124
vn 0.7017 0.0013 -0.7124
vn -0.0000 -0.6139 -0.7894
vn -0.6139 0.7894 -0.0000
vn -0.7124 0.0013 -0.7017
vn -0.7124 0.0013 0.7017
vn -0.7894 -0.6139 -0.0000
vn -0.7897 0.6135 -0.0000
vn -0.6135 -0.7897 -0.0000
vn -0.7125 -0.0014 -0.7017
vn -0.7125 -0.0014 0.7017
vn -0.0000 0.6135 0.7897
vn -0.0000 -0.7897 0.6135
vn 0.7017 -0.0014 0.7125
vn -0.7017 -0.0014 0.7125
vn 0.7017 0.0013 0.7124
vn -0.7017 0.0013 0.7124
vn -0.0000 -0.6139 0.7894
vn -0.0000 0.7894 0.6139
vn 0.7897 0.6135 -0.0000
vn 0.6135 -0.7897 -0.0000
vn 0.7125 -0.0014 -0.7017
vn 0.7125 -0.0014 0.7017
vn 0.7124 0.0013 0.7017
vn 0.7124 0.0013 -0.7017
vn 0.7894 -0.6139 -0.0000
vn 0.6139 0.7894 -0.0000
vn 0.2798 0.9184 0.2798
vn 0.4388 0.7842 0.4388
vn -0.8427 0.1357 0.5211
vn 0.5211 0.1357 -0.8427
vn 0.2798 0.9184 -0.2798
vn 0.4388 0.7842 -0.4388
vn -0.3298 -0.2455 -0.9115
vn -0.8427 0.1357 -0.5211
vn -0.2798 0.9184 -0.2798
vn -0.4388 0.7842 -0.4388
vn -0.5211 0.1357 0.8427
vn 0.3298 -0.2455 -0.9116
vn -0.2798 0.9184 0.2798
vn -0.4388 0.7842 0.4388
vn -0.9115 -0.2455 -0.3298
vn -0.5211 0.1357 -0.8427
vn -0.3298 -0.2455 0.9115
vn -0.3298 -0.2455 -0.9116
vn 0.3298 -0.2455 -0.9115
vt 0.088356 0.137012
vt 0.000000 0.082931
vt 0.049781 0.049297
vt 0.380467 0.137012
vt 0.370815 0.000000
vt 0.419042 0.049297
vt 0.642837 0.535739
vt 0.630707 0.501995
vt 0.839261 0.517837
vt 0.802744 0.548386
vt 0.673386 0.677744
vt 0.673386 0.572256
vt 0.468823 0.048227
vt 0.658035 0.243884
vt 0.468823 0.243884
vt 0.664234 0.515364
vt 0.658035 0.048227
vt 0.754617 0.292111
vt 0.826614 0.572256
vt 0.859636 0.710766
vt 0.826614 0.677744
vt 0.625041 0.482856
vt 0.611591 0.517120
vt 0.611591 0.482880
vt 0.361496 0.513504
vt 0.374063 0.493304
vt 0.384637 0.514494
vt 0.071894 0.549048
vt 0.095078 0.596515
vt 0.071905 0.594512
vt 0.024397 0.977005
vt 0.047569 0.979008
vt 0.044539 1.000000
vt 0.611591 0.232880
vt 0.625012 0.267144
vt 0.611591 0.267120
vt 0.125838 0.515283
vt 0.140283 0.500838
vt 0.138504 0.513504
vt 0.373745 0.596515
vt 0.396930 0.549048
vt 0.396918 0.594512
vt 0.424285 1.000000
vt 0.421254 0.979008
vt 0.444427 0.977005
vt 0.051459 0.208935
vt 0.028285 0.206932
vt 0.038575 0.170646
vt 0.417364 0.208935
vt 0.430249 0.170646
vt 0.440538 0.206932
vt 0.625856 0.510861
vt 0.625815 0.485519
vt 0.625000 0.235519
vt 0.625010 0.247377
vt 0.625032 0.260861
vt 0.138504 0.736496
vt 0.388409 0.264230
vt 0.373755 0.551051
vt 0.095068 0.551051
vt 0.625053 0.732856
vt 0.625053 0.517144
vt 0.625000 0.232856
vt 0.611591 0.017120
vt 0.625000 0.016833
vt 0.384637 0.735506
vt 0.361496 0.736496
vt 0.630707 0.748005
vt 0.625856 0.739139
vt 0.625000 0.014481
vt 0.586350 0.298262
vt 0.401872 0.464766
vt 0.411842 0.291930
vt 0.586348 0.548057
vt 0.409881 0.708617
vt 0.409881 0.541383
vt 0.625108 0.451793
vt 0.625107 0.289114
vt 0.625643 0.457707
vt 0.625151 0.702121
vt 0.625758 0.539467
vt 0.625758 0.710533
vt 0.132695 0.640671
vt 0.373069 0.938078
vt 0.095754 0.938078
vt 0.336158 0.500488
vt 0.099669 0.241623
vt 0.369155 0.241623
vt 0.586768 0.048043
vt 0.413232 0.208800
vt 0.413232 0.041200
vt 0.625000 0.201870
vt 0.625000 0.041910
vt 0.625000 0.208052
vt 0.642837 0.714261
vt 0.468823 0.082931
vt 0.859635 0.539234
vt 0.867626 0.741079
vt 0.867626 0.508921
vt 0.625042 0.297767
vt 0.585589 0.452576
vt 0.388409 0.014230
vt 0.388409 0.235770
vt 0.586768 0.201957
vt 0.625000 0.047857
vt 0.132665 0.500488
vt 0.336129 0.640671
vt 0.468823 0.340296
vt 0.524195 0.665796
vt 0.468823 0.617611
vt 0.625151 0.547879
vt 0.611591 0.732880
vt 0.586348 0.701943
vt 0.468823 0.902340
vt 0.522752 0.811397
vt 0.522752 0.919350
vt 0.485909 0.956999
vt 0.098008 0.000000
vt 0.136583 0.087715
vt 0.697256 0.548386
vt 0.468823 0.665796
vt 0.522752 0.756739
vt 0.468823 0.773748
vt 0.505666 0.811397
vt 0.332241 0.087715
vt 0.754617 0.000000
vt 0.125838 0.734717
vt 0.625000 0.007868
vt 0.524195 0.292111
s 0
usemtl Material
f 5/1/1 88/2/1 86/3/1
f 7/4/2 97/5/2 98/6/2
f 9/7/3 92/8/3 90/7/3
f 12/9/4 93/10/4 3/10/4
f 2/11/5 9/7/5 1/12/5
f 3/13/6 2/14/6 1/15/6
f 3/10/7 10/16/7 12/9/7
f 4/17/8 5/18/8 2/14/8
f 3/19/9 8/20/9 4/21/9
f 54/22/10 81/23/10 59/24/10
f 17/25/11 58/26/11 82/27/11
f 78/28/12 75/29/12 84/30/12
f 83/31/13 76/32/13 26/33/13
f 64/34/14 53/35/14 60/36/14
f 62/37/15 57/38/15 33/39/15
f 74/40/16 65/41/16 63/42/16
f 38/43/17 73/44/17 61/45/17
f 72/46/18 79/47/18 43/48/18
f 71/49/19 45/50/19 68/51/19
f 80/52/20 55/53/20 49/8/20
f 67/54/21 51/55/21 56/56/21
f 38/57/22 62/37/22 33/39/22
f 33/39/23 58/26/23 17/25/23
f 82/27/24 59/24/24 81/23/24
f 74/40/25 61/45/25 73/44/25
f 76/32/26 84/30/26 75/29/26
f 57/58/27 64/34/27 60/36/27
f 70/59/28 75/29/28 69/60/28
f 78/61/29 81/23/29 77/62/29
f 26/33/30 73/44/30 38/43/30
f 66/63/31 63/64/31 65/65/31
f 54/22/32 60/36/32 53/35/32
f 17/25/33 83/66/33 26/67/33
f 72/46/34 45/50/34 71/49/34
f 80/52/35 43/68/35 79/69/35
f 68/70/36 51/55/36 67/54/36
f 56/56/37 49/8/37 55/53/37
f 65/41/38 71/49/38 68/51/38
f 79/47/39 69/60/39 78/28/39
f 55/53/40 77/62/40 54/22/40
f 53/35/41 67/54/41 56/56/41
f 27/71/42 18/72/42 32/73/42
f 16/74/43 24/75/43 19/76/43
f 14/77/44 52/78/44 48/79/44
f 21/80/45 47/81/45 42/82/45
f 17/25/46 38/57/46 33/39/46
f 23/83/47 39/84/47 25/85/47
f 36/86/48 41/87/48 44/88/48
f 34/89/49 31/90/49 40/91/49
f 29/92/50 46/93/50 50/94/50
f 7/4/51 43/48/51 5/1/51
f 6/95/52 88/68/52 43/68/52
f 6/95/53 49/8/53 9/7/53
f 7/4/54 100/96/54 45/50/54
f 11/97/55 45/98/55 8/20/55
f 9/7/56 89/12/56 1/12/56
f 10/16/57 51/99/57 12/9/57
f 11/97/58 96/99/58 51/99/58
f 14/77/59 53/35/59 30/100/59
f 52/78/60 55/53/60 48/79/60
f 48/79/61 54/22/61 14/77/61
f 52/78/62 53/35/62 56/56/62
f 18/72/63 57/58/63 32/73/63
f 18/72/64 59/24/64 58/26/64
f 32/73/65 60/36/65 27/71/65
f 27/71/66 59/24/66 13/101/66
f 31/90/67 61/102/67 40/91/67
f 40/91/68 63/64/68 34/89/68
f 31/90/69 64/34/69 62/103/69
f 34/89/70 64/34/70 28/104/70
f 29/92/71 65/65/71 37/105/71
f 46/93/72 67/54/72 50/94/72
f 46/93/73 65/65/73 68/70/73
f 50/94/74 66/63/74 29/92/74
f 36/86/75 69/60/75 22/106/75
f 41/87/76 71/49/76 44/88/76
f 44/88/77 70/59/77 36/86/77
f 41/87/78 69/60/78 72/46/78
f 39/84/79 74/40/79 73/44/79
f 25/85/80 75/29/80 23/83/80
f 23/83/81 74/40/81 35/107/81
f 39/108/82 76/109/82 25/110/82
f 21/80/83 77/62/83 15/111/83
f 47/81/84 79/69/84 42/82/84
f 42/82/85 78/61/85 21/80/85
f 47/81/86 77/62/86 80/52/86
f 19/76/87 81/23/87 16/74/87
f 24/75/88 84/112/88 83/66/88
f 16/74/89 84/112/89 20/113/89
f 24/75/90 82/27/90 19/76/90
f 87/114/91 85/115/91 86/116/91
f 86/116/92 88/117/92 87/114/92
f 5/1/93 85/118/93 2/119/93
f 6/95/94 85/11/94 87/95/94
f 91/16/95 89/12/95 90/7/95
f 90/7/96 92/8/96 91/16/96
f 10/16/97 92/8/97 49/8/97
f 10/16/98 89/120/98 91/16/98
f 93/10/99 95/9/99 94/97/99
f 94/97/100 95/9/100 96/99/100
f 11/97/101 93/19/101 94/97/101
f 12/9/102 96/99/102 95/9/102
f 97/121/103 99/122/103 98/123/103
f 98/123/104 99/122/104 100/124/104
f 8/20/105 100/98/105 99/20/105
f 8/20/106 97/21/106 4/21/106
f 5/1/107 43/48/107 88/2/107
f 7/4/2 4/125/2 97/5/2
f 9/7/3 49/8/3 92/8/3
f 12/9/4 95/9/4 93/10/4
f 2/11/5 6/95/5 9/7/5
f 3/13/6 4/17/6 2/14/6
f 3/10/7 1/120/7 10/16/7
f 4/17/8 7/126/8 5/18/8
f 3/19/9 11/97/9 8/20/9
f 54/22/10 77/62/10 81/23/10
f 78/28/12 69/60/12 75/29/12
f 64/34/14 66/63/14 53/35/14
f 74/40/16 70/59/16 65/41/16
f 38/57/22 61/127/22 62/37/22
f 33/39/23 57/38/23 58/26/23
f 82/27/24 58/26/24 59/24/24
f 74/40/25 63/42/25 61/45/25
f 76/32/26 83/31/26 84/30/26
f 57/58/27 62/103/27 64/34/27
f 70/59/28 74/40/28 75/29/28
f 78/61/29 84/112/29 81/23/29
f 26/33/30 76/32/30 73/44/30
f 66/63/31 64/34/31 63/64/31
f 54/22/32 59/24/32 60/36/32
f 17/25/33 82/27/33 83/66/33
f 72/46/34 43/48/34 45/50/34
f 80/52/35 49/8/35 43/68/35
f 68/70/36 45/128/36 51/55/36
f 56/56/37 51/55/37 49/8/37
f 65/41/38 70/59/38 71/49/38
f 79/47/39 72/46/39 69/60/39
f 55/53/40 80/52/40 77/62/40
f 53/35/41 66/63/41 67/54/41
f 27/71/42 13/101/42 18/72/42
f 16/74/43 20/113/43 24/75/43
f 14/77/44 30/100/44 52/78/44
f 21/80/45 15/111/45 47/81/45
f 17/25/46 26/67/46 38/57/46
f 23/83/47 35/107/47 39/84/47
f 36/86/48 22/106/48 41/87/48
f 34/89/49 28/104/49 31/90/49
f 29/92/50 37/105/50 46/93/50
f 7/4/51 45/50/51 43/48/51
f 6/95/52 87/95/52 88/68/52
f 6/95/53 43/68/53 49/8/53
f 7/4/54 98/6/54 100/96/54
f 11/97/55 51/99/55 45/98/55
f 9/7/56 90/7/56 89/12/56
f 10/16/57 49/8/57 51/99/57
f 11/97/58 94/97/58 96/99/58
f 14/77/59 54/22/59 53/35/59
f 52/78/60 56/56/60 55/53/60
f 48/79/61 55/53/61 54/22/61
f 52/78/62 30/100/62 53/35/62
f 18/72/63 58/26/63 57/58/63
f 18/72/64 13/101/64 59/24/64
f 32/73/65 57/58/65 60/36/65
f 27/71/66 60/36/66 59/24/66
f 31/90/67 62/103/67 61/102/67
f 40/91/68 61/102/68 63/64/68
f 31/90/69 28/104/69 64/34/69
f 34/89/70 63/64/70 64/34/70
f 29/92/71 66/63/71 65/65/71
f 46/93/72 68/70/72 67/54/72
f 46/93/73 37/105/73 65/65/73
f 50/94/74 67/54/74 66/63/74
f 36/86/75 70/59/75 69/60/75
f 41/87/76 72/46/76 71/49/76
f 44/88/77 71/49/77 70/59/77
f 41/87/78 22/106/78 69/60/78
f 39/84/79 35/107/79 74/40/79
f 25/85/80 76/32/80 75/29/80
f 23/83/81 75/29/81 74/40/81
f 39/108/82 73/129/82 76/109/82
f 21/80/83 78/61/83 77/62/83
f 47/81/84 80/52/84 79/69/84
f 42/82/85 79/69/85 78/61/85
f 47/81/86 15/111/86 77/62/86
f 19/76/87 82/27/87 81/23/87
f 24/75/88 20/113/88 84/112/88
f 16/74/89 81/23/89 84/112/89
f 24/75/90 83/66/90 82/27/90
f 5/1/93 86/3/93 85/118/93
f 6/95/94 2/11/94 85/11/94
f 10/16/108 91/16/108 92/8/108
f 10/16/98 1/120/98 89/120/98
f 11/97/101 3/19/101 93/19/101
f 12/9/109 51/99/109 96/99/109
f 8/20/105 45/98/105 100/98/105
f 8/20/106 99/20/106 97/21/106
